<svg width="54" height="67" viewBox="0 0 54 67" fill="none" xmlns="http://www.w3.org/2000/svg">
<path id="Vector" d="M0 56.8334V50.1667H6.66667V26.8334C6.66667 22.2223 8.05556 18.1251 10.8333 14.5417C13.6111 10.9584 17.2222 8.61119 21.6667 7.50008V5.16675C21.6667 3.77786 22.1528 2.5973 23.125 1.62508C24.0972 0.652859 25.2778 0.166748 26.6667 0.166748C28.0556 0.166748 29.2361 0.652859 30.2083 1.62508C31.1806 2.5973 31.6667 3.77786 31.6667 5.16675V7.50008C36.1111 8.61119 39.7222 10.9584 42.5 14.5417C45.2778 18.1251 46.6667 22.2223 46.6667 26.8334V50.1667H53.3333V56.8334H0ZM26.6667 66.8334C24.8333 66.8334 23.2639 66.1806 21.9583 64.8751C20.6528 63.5695 20 62.0001 20 60.1667H33.3333C33.3333 62.0001 32.6806 63.5695 31.375 64.8751C30.0694 66.1806 28.5 66.8334 26.6667 66.8334ZM13.3333 50.1667H40V26.8334C40 23.1667 38.6944 20.0279 36.0833 17.4167C33.4722 14.8056 30.3333 13.5001 26.6667 13.5001C23 13.5001 19.8611 14.8056 17.25 17.4167C14.6389 20.0279 13.3333 23.1667 13.3333 26.8334V50.1667Z" fill="#3C5A31"/>
</svg>
