<svg width="81" height="81" viewBox="0 0 81 81" fill="none" xmlns="http://www.w3.org/2000/svg">
<g id="block_24dp_F3F3F3_FILL0_wght400_GRAD0_opsz24 1">
<path id="Vector" d="M40.3333 73.8334C35.7222 73.8334 31.3889 72.9584 27.3333 71.2084C23.2778 69.4584 19.75 67.0834 16.75 64.0834C13.75 61.0834 11.375 57.5556 9.625 53.5001C7.875 49.4445 7 45.1112 7 40.5001C7 35.889 7.875 31.5556 9.625 27.5001C11.375 23.4445 13.75 19.9167 16.75 16.9167C19.75 13.9167 23.2778 11.5417 27.3333 9.79175C31.3889 8.04175 35.7222 7.16675 40.3333 7.16675C44.9444 7.16675 49.2778 8.04175 53.3333 9.79175C57.3889 11.5417 60.9167 13.9167 63.9167 16.9167C66.9167 19.9167 69.2917 23.4445 71.0417 27.5001C72.7917 31.5556 73.6667 35.889 73.6667 40.5001C73.6667 45.1112 72.7917 49.4445 71.0417 53.5001C69.2917 57.5556 66.9167 61.0834 63.9167 64.0834C60.9167 67.0834 57.3889 69.4584 53.3333 71.2084C49.2778 72.9584 44.9444 73.8334 40.3333 73.8334ZM40.3333 67.1667C43.3333 67.1667 46.2222 66.6806 49 65.7084C51.7778 64.7362 54.3333 63.3334 56.6667 61.5001L19.3333 24.1667C17.5 26.5001 16.0972 29.0556 15.125 31.8334C14.1528 34.6112 13.6667 37.5001 13.6667 40.5001C13.6667 47.9445 16.25 54.2501 21.4167 59.4167C26.5833 64.5834 32.8889 67.1667 40.3333 67.1667ZM61.3333 56.8334C63.1667 54.5001 64.5694 51.9445 65.5417 49.1667C66.5139 46.389 67 43.5001 67 40.5001C67 33.0556 64.4167 26.7501 59.25 21.5834C54.0833 16.4167 47.7778 13.8334 40.3333 13.8334C37.3333 13.8334 34.4444 14.3195 31.6667 15.2917C28.8889 16.264 26.3333 17.6667 24 19.5001L61.3333 56.8334Z" fill="#834800"/>
</g>
</svg>
