<svg width="25" height="25" viewBox="0 0 25 25" fill="none" xmlns="http://www.w3.org/2000/svg">
<path id="Vector" d="M24.9368 2.97269C24.2478 4.22042 23.3925 5.31436 22.4073 6.20783L22.377 6.23387C22.3871 6.4158 22.3921 6.68904 22.3921 7.05359C22.3904 8.81376 22.179 10.564 21.7648 12.2479L21.7917 12.1209C21.3739 13.8662 20.7478 15.5246 19.9341 17.0413L19.9678 16.9736C19.1648 18.4993 18.191 19.8764 17.0753 21.0639L17.0551 21.0847C15.8741 22.3101 14.5251 23.264 13.0722 23.9011L12.9812 23.9355C11.495 24.6105 9.77887 25 7.98949 25H7.87665H7.88255H7.77561C4.90417 25 2.23147 23.9428 0 22.1252L0.05305 22.1659C0.405874 22.2159 0.814275 22.244 1.22857 22.244H1.28751H1.28415L1.39025 22.245C3.75392 22.245 5.9256 21.2295 7.63582 19.5307L7.61646 19.5494C6.55877 19.525 5.53323 19.0955 4.68115 18.32C3.82906 17.5446 3.19237 16.4613 2.8588 15.2196L2.8487 15.1748C3.13668 15.2342 3.47014 15.2696 3.80949 15.2727H3.81202C4.27752 15.2733 4.74104 15.1977 5.19047 15.0477L5.15342 15.0581C4.00553 14.7778 2.97239 14.0118 2.23147 12.8916L2.22473 12.8802C1.4726 11.7824 1.06096 10.3893 1.06353 8.95031L1.06437 8.86282V8.86698V8.78886C1.76621 9.28139 2.55419 9.55589 3.36067 9.5888H3.36993C2.68598 9.02336 2.12194 8.26282 1.72539 7.37127L1.71191 7.33898C1.30541 6.41594 1.0937 5.38097 1.09637 4.32986C1.09637 3.15704 1.35404 2.05922 1.8037 1.11763L1.79107 1.1468C3.04361 3.05312 4.59822 4.62232 6.35926 5.75787L6.43925 5.80474C8.1419 6.9161 10.146 7.62021 12.2722 7.74624L12.3042 7.74728C12.2212 7.27433 12.1792 6.79179 12.1788 6.30782C12.1799 5.04326 12.4881 3.80723 13.0632 2.76178C13.6384 1.71633 14.4541 0.908585 15.4047 0.443179C16.3552 -0.0222269 17.3969 -0.123852 18.3947 0.151466C19.3925 0.426784 20.3005 1.06636 21.001 1.98735L21.0036 1.99048C22.1619 1.71602 23.2718 1.18988 24.2817 0.43644L24.2371 0.467688C23.8689 1.92108 23.0784 3.15418 22.0183 3.92886L21.9947 3.94448C23.0324 3.80208 24.0461 3.46234 25 2.93727L24.9352 2.96956L24.9368 2.97269Z" fill="white"/>
</svg>
