<svg width="25" height="25" viewBox="0 0 25 25" fill="none" xmlns="http://www.w3.org/2000/svg">
<path id="Vector" d="M22.6562 0H2.34375C1.05469 0 0 1.05469 0 2.34375V22.6562C0 23.9453 1.05469 25 2.34375 25H22.6562C23.9453 25 25 23.9453 25 22.6562V2.34375C25 1.05469 23.9453 0 22.6562 0ZM9.375 20.3125H6.25V9.375H9.375V20.3125ZM7.8125 7.8125C7.3981 7.8125 7.00067 7.64788 6.70765 7.35485C6.41462 7.06183 6.25 6.6644 6.25 6.25C6.25 5.8356 6.41462 5.43817 6.70765 5.14515C7.00067 4.85212 7.3981 4.6875 7.8125 4.6875C8.2269 4.6875 8.62433 4.85212 8.91735 5.14515C9.21038 5.43817 9.375 5.8356 9.375 6.25C9.375 6.6644 9.21038 7.06183 8.91735 7.35485C8.62433 7.64788 8.2269 7.8125 7.8125 7.8125ZM20.3125 20.3125H17.1875V14.0625C17.1875 13.6481 17.0229 13.2507 16.7299 12.9576C16.4368 12.6646 16.0394 12.5 15.625 12.5C15.2106 12.5 14.8132 12.6646 14.5201 12.9576C14.2271 13.2507 14.0625 13.6481 14.0625 14.0625V20.3125H10.9375V9.375H14.0625V11.3141C14.7063 10.4297 15.6938 9.375 16.7969 9.375C18.7406 9.375 20.3125 11.1234 20.3125 13.2812V20.3125Z" fill="#EEEEF0"/>
</svg>
