<svg width="16" height="16" viewBox="0 0 16 16" fill="none" xmlns="http://www.w3.org/2000/svg">
<g id="ctrl-right 1">
<g id="Group">
<path id="Vector" d="M6.769 1.35999C6.59926 1.15604 6.35545 1.02787 6.09121 1.00368C5.82697 0.979489 5.56395 1.06126 5.36 1.23099C5.15604 1.40073 5.02787 1.64454 5.00368 1.90878C4.97949 2.17302 5.06126 2.43604 5.23099 2.63999L9.7 7.99999L5.23099 13.36C5.14695 13.461 5.08362 13.5775 5.04461 13.703C5.00561 13.8285 4.9917 13.9604 5.00368 14.0912C5.01566 14.222 5.05329 14.3492 5.11443 14.4655C5.17557 14.5818 5.25901 14.6849 5.36 14.769C5.56395 14.9387 5.82697 15.0205 6.09121 14.9963C6.35545 14.9721 6.59926 14.8439 6.769 14.64L11.769 8.64C11.9187 8.46031 12.0006 8.23385 12.0006 7.99999C12.0006 7.76614 11.9187 7.53968 11.769 7.35999L6.769 1.35999Z" fill="#C8D1C8"/>
</g>
</g>
</svg>
