<svg width="71" height="55" viewBox="0 0 71 55" fill="none" xmlns="http://www.w3.org/2000/svg">
<g id="assignment_ind_24dp_BBB5C7_FILL0_wght200_GRAD0_opsz24 3">
<path id="Vector" d="M16.6223 45.8892C15.2723 45.8892 14.1451 45.5412 13.2409 44.845C12.3366 44.1489 11.8845 43.2812 11.8845 42.2419V13.413C11.8845 12.3737 12.3366 11.506 13.2409 10.8099C14.1451 10.1138 15.2723 9.76569 16.6223 9.76569H30.4059C30.1875 8.5849 30.567 7.53713 31.5446 6.62237C32.5221 5.70762 33.7893 5.25024 35.3461 5.25024C36.9028 5.25024 38.17 5.70762 39.1476 6.62237C40.1251 7.53713 40.5047 8.5849 40.2862 9.76569H54.0698C55.4198 9.76569 56.547 10.1138 57.4512 10.8099C58.3555 11.506 58.8076 12.3737 58.8076 13.413V42.2419C58.8076 43.2812 58.3555 44.1489 57.4512 44.845C56.547 45.5412 55.4198 45.8892 54.0698 45.8892H16.6223ZM35.3461 10.7642C35.9815 10.7642 36.5069 10.6042 36.9224 10.2844C37.3378 9.96455 37.5456 9.56005 37.5456 9.07087C37.5456 8.5817 37.3378 8.17719 36.9224 7.85735C36.5069 7.5375 35.9815 7.37758 35.3461 7.37758C34.7106 7.37758 34.1852 7.5375 33.7697 7.85735C33.3543 8.17719 33.1465 8.5817 33.1465 9.07087C33.1465 9.56005 33.3543 9.96455 33.7697 10.2844C34.1852 10.6042 34.7106 10.7642 35.3461 10.7642ZM14.8172 41.9032C17.4566 39.9089 20.5237 38.3379 24.0185 37.1902C27.5133 36.0425 31.2892 35.4687 35.3461 35.4687C39.4029 35.4687 43.1788 36.0425 46.6736 37.1902C50.1684 38.3379 53.2355 39.9089 55.8749 41.9032V13.413C55.8749 13.0653 55.687 12.7468 55.3111 12.4575C54.9352 12.1681 54.5215 12.0234 54.0698 12.0234H16.6223C16.1707 12.0234 15.7569 12.1681 15.381 12.4575C15.0052 12.7468 14.8172 13.0653 14.8172 13.413V41.9032ZM35.3461 30.259C37.8051 30.259 39.8861 29.6033 41.589 28.292C43.2924 26.9806 44.1441 25.3786 44.1441 23.4859C44.1441 21.5928 43.2924 19.9905 41.589 18.6792C39.8861 17.3682 37.8051 16.7127 35.3461 16.7127C32.887 16.7127 30.806 17.3682 29.1031 18.6792C27.3997 19.9905 26.548 21.5928 26.548 23.4859C26.548 25.3786 27.3997 26.9806 29.1031 28.292C30.806 29.6033 32.887 30.259 35.3461 30.259ZM17.4112 43.6315H53.2809V43.2409C50.7016 41.3738 47.8928 39.9879 44.8546 39.0833C41.8168 38.1787 38.6473 37.7264 35.3461 37.7264C32.1201 37.7264 28.9787 38.1716 25.9219 39.0619C22.865 39.9518 20.0281 41.3158 17.4112 43.154V43.6315ZM35.3461 28.0013C33.7482 28.0013 32.3711 27.5562 31.2146 26.6659C30.0587 25.7759 29.4807 24.7159 29.4807 23.4859C29.4807 22.2554 30.0587 21.1952 31.2146 20.3053C32.3711 19.4154 33.7482 18.9704 35.3461 18.9704C36.9439 18.9704 38.321 19.4154 39.4775 20.3053C40.6335 21.1952 41.2114 22.2554 41.2114 23.4859C41.2114 24.7159 40.6335 25.7759 39.4775 26.6659C38.321 27.5562 36.9439 28.0013 35.3461 28.0013Z" fill="#F3F3F3"/>
</g>
</svg>
