<svg width="71" height="55" viewBox="0 0 71 55" fill="none" xmlns="http://www.w3.org/2000/svg">
<g id="space_dashboard_24dp_BBB5C7_FILL0_wght200_GRAD0_opsz24 2">
<path id="Vector" d="M16.6223 45.2886C15.2723 45.2886 14.1451 44.9405 13.2409 44.2444C12.3366 43.5483 11.8845 42.6805 11.8845 41.6412V12.8124C11.8845 11.7731 12.3366 10.9054 13.2409 10.2092C14.1451 9.5131 15.2723 9.16504 16.6223 9.16504H54.0698C55.4198 9.16504 56.547 9.5131 57.4512 10.2092C58.3555 10.9054 58.8076 11.7731 58.8076 12.8124V41.6412C58.8076 42.6805 58.3555 43.5483 57.4512 44.2444C56.547 44.9405 55.4198 45.2886 54.0698 45.2886H16.6223ZM16.6223 43.0309H33.8797V11.4228H16.6223C16.1707 11.4228 15.7569 11.5674 15.381 11.8568C15.0052 12.1462 14.8172 12.4647 14.8172 12.8124V41.6412C14.8172 41.9889 15.0052 42.3074 15.381 42.5968C15.7569 42.8862 16.1707 43.0309 16.6223 43.0309ZM36.8124 43.0309H54.0698C54.5215 43.0309 54.9352 42.8862 55.3111 42.5968C55.687 42.3074 55.8749 41.9889 55.8749 41.6412V27.2268H36.8124V43.0309ZM36.8124 24.9691H55.8749V12.8124C55.8749 12.4647 55.687 12.1462 55.3111 11.8568C54.9352 11.5674 54.5215 11.4228 54.0698 11.4228H36.8124V24.9691Z" fill="#F3F3F3"/>
</g>
</svg>
