<svg width="87" height="58" viewBox="0 0 87 58" fill="none" xmlns="http://www.w3.org/2000/svg">
<path id="Vector" d="M32.1799 1.41737C31.7344 0.968252 31.2045 0.61178 30.6205 0.368513C30.0366 0.125247 29.4103 0 28.7778 0C28.1452 0 27.5189 0.125247 26.935 0.368513C26.3511 0.61178 25.8211 0.968252 25.3757 1.41737L1.41737 25.3757C0.968251 25.8211 0.611779 26.3511 0.368512 26.935C0.125246 27.5189 0 28.1452 0 28.7778C0 29.4103 0.125246 30.0366 0.368512 30.6205C0.611779 31.2045 0.968251 31.7344 1.41737 32.1799L25.3757 56.1382C25.8211 56.5873 26.3511 56.9438 26.935 57.1871C27.5189 57.4303 28.1452 57.5556 28.7778 57.5556C29.4103 57.5556 30.0366 57.4303 30.6205 57.1871C31.2045 56.9438 31.7344 56.5873 32.1799 56.1382C32.629 55.6927 32.9855 55.1628 33.2287 54.5789C33.472 53.995 33.5972 53.3687 33.5972 52.7361C33.5972 52.1036 33.472 51.4773 33.2287 50.8934C32.9855 50.3094 32.629 49.7795 32.1799 49.334L11.5757 28.7778L32.1799 8.22153C32.629 7.77609 32.9855 7.24612 33.2287 6.66221C33.472 6.07831 33.5972 5.45201 33.5972 4.81945C33.5972 4.18689 33.472 3.5606 33.2287 2.97669C32.9855 2.39278 32.629 1.86281 32.1799 1.41737ZM84.8882 25.3757L60.9299 1.41737C60.4831 0.970599 59.9527 0.616204 59.369 0.374415C58.7852 0.132626 58.1596 0.00817746 57.5278 0.00817746C56.2518 0.00817746 55.028 0.515078 54.1257 1.41737C53.6789 1.86413 53.3245 2.39453 53.0827 2.97826C52.841 3.56199 52.7165 4.18763 52.7165 4.81945C52.7165 6.09548 53.2234 7.31925 54.1257 8.22153L74.7299 28.7778L54.1257 49.334C53.6766 49.7795 53.3201 50.3094 53.0768 50.8934C52.8336 51.4773 52.7083 52.1036 52.7083 52.7361C52.7083 53.3687 52.8336 53.995 53.0768 54.5789C53.3201 55.1628 53.6766 55.6927 54.1257 56.1382C54.5711 56.5873 55.1011 56.9438 55.685 57.1871C56.2689 57.4303 56.8952 57.5556 57.5278 57.5556C58.1603 57.5556 58.7866 57.4303 59.3705 57.1871C59.9545 56.9438 60.4844 56.5873 60.9299 56.1382L84.8882 32.1799C85.3373 31.7344 85.6938 31.2045 85.9371 30.6205C86.1803 30.0366 86.3056 29.4103 86.3056 28.7778C86.3056 28.1452 86.1803 27.5189 85.9371 26.935C85.6938 26.3511 85.3373 25.8211 84.8882 25.3757Z" fill="#C8D1C8"/>
</svg>
